<svg xmlns="http://www.w3.org/2000/svg" width="14.141" height="15.712" viewBox="0 0 14.141 15.712">
  <path id="ic_assignment_ind_24px" d="M15.569,2.571H12.286a2.347,2.347,0,0,0-4.431,0H4.571A1.576,1.576,0,0,0,3,4.142v11a1.576,1.576,0,0,0,1.571,1.571h11a1.576,1.576,0,0,0,1.571-1.571v-11A1.576,1.576,0,0,0,15.569,2.571Zm-5.5,0a.786.786,0,1,1-.786.786A.788.788,0,0,1,10.07,2.571Zm0,3.142A2.357,2.357,0,1,1,7.714,8.07,2.354,2.354,0,0,1,10.07,5.714Zm4.714,9.427H5.357v-1.1c0-1.571,3.142-2.435,4.714-2.435s4.714.864,4.714,2.435Z" transform="translate(-3 -1)" fill="#454f63"/>
</svg>
