<svg xmlns="http://www.w3.org/2000/svg" width="25.144" height="24.215" viewBox="0 0 25.144 24.215">
  <g id="Group_105" data-name="Group 105" transform="translate(-1159.9 -120)">
    <path id="icons_back" data-name="icons/back" d="M94.185,12.107,85.493,3.9a.5.5,0,0,1-.01-.723L88.51.147a.5.5,0,0,1,.706-.008l12.108,11.6a.5.5,0,0,1,0,.729l-12.108,11.6a.5.5,0,0,1-.706-.008l-3.027-3.027a.5.5,0,0,1,.01-.723Z" transform="translate(1074.565 120.001)" fill="#454f63"/>
    <path id="icons_back-2" data-name="icons/back" d="M92.628,12.107l8.693-8.21a.5.5,0,0,0,.01-.723L98.3.147A.5.5,0,0,0,97.6.139l-12.108,11.6a.5.5,0,0,0,0,.729L97.6,24.074a.5.5,0,0,0,.706-.008l3.027-3.027a.5.5,0,0,0-.01-.723Z" transform="translate(1083.565 120.001)" fill="#454f63"/>
  </g>
</svg>
