<svg xmlns="http://www.w3.org/2000/svg" width="32.049" height="34.296" viewBox="0 0 32.049 34.296">
  <path id="calendar2" d="M31.76,36.3H4.289A2.374,2.374,0,0,1,2,33.846V8.124a2.374,2.374,0,0,1,2.289-2.45H6.578V6.9a3.56,3.56,0,0,0,3.434,3.675A3.56,3.56,0,0,0,13.446,6.9V5.675H22.6V6.9a3.442,3.442,0,1,0,6.868,0V5.675H31.76a2.374,2.374,0,0,1,2.289,2.45V33.846A2.374,2.374,0,0,1,31.76,36.3Zm0-22.047H4.289v19.6H31.76ZM14.67,23.838a2.372,2.372,0,0,0,.339-1.216A1.259,1.259,0,0,0,13.58,21.2a3.462,3.462,0,0,0-2.374,1.055v-2a4.851,4.851,0,0,1,2.831-.868,3.2,3.2,0,0,1,2.3.792,2.824,2.824,0,0,1,.829,2.142,5.367,5.367,0,0,1-2.019,3.725l-1.979,1.88v.043h3.9v1.88H10.744V28.09L13.5,25.269a8.065,8.065,0,0,0,1.17-1.431Zm7.747,4.087a1.273,1.273,0,0,0,.453-1.041,1.2,1.2,0,0,0-.56-1.062,2.749,2.749,0,0,0-1.539-.374H19.9V23.712h.8q1.878,0,1.878-1.335,0-1.257-1.442-1.255a3.152,3.152,0,0,0-1.878.668V19.937a4.9,4.9,0,0,1,2.36-.545,3.4,3.4,0,0,1,2.3.71,2.324,2.324,0,0,1,.822,1.845,2.365,2.365,0,0,1-1.911,2.526v.036a2.53,2.53,0,0,1,1.609.792,2.321,2.321,0,0,1,.591,1.611,2.841,2.841,0,0,1-.985,2.282,4.068,4.068,0,0,1-2.723.84,4.974,4.974,0,0,1-2.421-.517V27.543a3.558,3.558,0,0,0,2.254.753,1.921,1.921,0,0,0,1.264-.371ZM26,9.349a2.336,2.336,0,0,1-2.254-2.412V4.412a2.259,2.259,0,1,1,4.507,0V6.937A2.336,2.336,0,0,1,26,9.349Zm-16.024,0A2.336,2.336,0,0,1,7.723,6.937V4.412A2.336,2.336,0,0,1,9.977,2,2.336,2.336,0,0,1,12.23,4.412V6.937A2.337,2.337,0,0,1,9.977,9.349Z" transform="translate(-2 -2)" fill="#454f63"/>
</svg>
