<svg xmlns="http://www.w3.org/2000/svg" width="21.803" height="21.803" viewBox="0 0 21.803 21.803">
  <path id="icon_sendMessage" data-name="icon/sendMessage" d="M9.051,17.751a.7.7,0,0,0-.995,0L6.213,19.593a.7.7,0,1,0,.995.994l1.843-1.843a.7.7,0,0,0,0-.994Zm-5-5a.7.7,0,0,0-.994,0L1.215,14.595a.7.7,0,0,0,.994.995l1.843-1.843a.7.7,0,0,0,0-.995Zm3.332,1.666a.7.7,0,0,0-.995,0l-4.67,4.67a.7.7,0,1,0,.995.995l4.67-4.67A.7.7,0,0,0,7.385,14.418ZM21.768.922,15.1,21.319a.7.7,0,0,1-1.277.135L9.344,13.746a.7.7,0,0,1,.043-.773L11,10.806,8.83,12.416a.7.7,0,0,1-.773.043L.349,7.977A.7.7,0,0,1,.484,6.7L20.881.035a.7.7,0,0,1,.887.887Z" transform="translate(0 0)" fill="#363d5e"/>
</svg>
