<svg xmlns="http://www.w3.org/2000/svg" xmlns:xlink="http://www.w3.org/1999/xlink" width="37.596" height="38.885" viewBox="0 0 37.596 38.885">
  <defs>
    <filter id="XMLID_9_" x="0" y="0" width="37.596" height="38.885" filterUnits="userSpaceOnUse">
      <feOffset dy="3" input="SourceAlpha"/>
      <feGaussianBlur stdDeviation="3" result="blur"/>
      <feFlood flood-opacity="0.161"/>
      <feComposite operator="in" in2="blur"/>
      <feComposite in="SourceGraphic"/>
    </filter>
  </defs>
  <g transform="matrix(1, 0, 0, 1, 0, 0)" filter="url(#XMLID_9_)">
    <path id="XMLID_9_2" data-name="XMLID_9_" d="M39.787,20.5H24.171A1.982,1.982,0,0,0,22.2,22.471V39.414a1.982,1.982,0,0,0,1.971,1.971H39.825A1.982,1.982,0,0,0,41.8,39.414V22.471A2.014,2.014,0,0,0,39.787,20.5Zm-.644,18.232H24.815V23.115H39.143ZM27.431,32.212h9.1V33.5h-9.1Zm0,2.615h9.1v1.289h-9.1Zm1.289-8.453A1.982,1.982,0,0,1,30.691,24.4a1.971,1.971,0,1,1,0,3.942A1.982,1.982,0,0,1,28.72,26.375Zm3.26,1.933H29.364c-1.061,0-1.971.569-1.971,1.289v1.327h6.52V29.635C33.95,28.915,33.041,28.308,31.979,28.308Z" transform="translate(-13.2 -14.5)" fill="#bacad2"/>
  </g>
</svg>
