<svg xmlns="http://www.w3.org/2000/svg" xmlns:xlink="http://www.w3.org/1999/xlink" width="36.96" height="38.844" viewBox="0 0 36.96 38.844">
  <defs>
    <filter id="icon_powiadomienia" x="0" y="0" width="36.96" height="38.844" filterUnits="userSpaceOnUse">
      <feOffset dy="3" input="SourceAlpha"/>
      <feGaussianBlur stdDeviation="3" result="blur"/>
      <feFlood flood-opacity="0.49"/>
      <feComposite operator="in" in2="blur"/>
      <feComposite in="SourceGraphic"/>
    </filter>
  </defs>
  <g transform="matrix(1, 0, 0, 1, 0, 0)" filter="url(#icon_powiadomienia)">
    <path id="icon_powiadomienia-2" data-name="icon/powiadomienia" d="M21.464,17.54a.748.748,0,0,0,.686.461h5.435a3.327,3.327,0,0,0,6.582,0h5.448a.346.346,0,0,0,.112-.012.759.759,0,0,0,.6-.474.732.732,0,0,0-.187-.785l-.037-.037a3.5,3.5,0,0,1-.661-1.122,11.135,11.135,0,0,1-.7-4.226A12.3,12.3,0,0,0,38,6.941a7.381,7.381,0,0,0-2.133-3.064,6.614,6.614,0,0,0-2.319-1.272A2.946,2.946,0,0,0,32.92.835,2.5,2.5,0,0,0,30.9,0a2.528,2.528,0,0,0-2.007.835,2.907,2.907,0,0,0-.636,1.808,6.682,6.682,0,0,0-2.319,1.247c-2.406,1.97-2.9,5.136-2.9,7.43a10.959,10.959,0,0,1-.711,4.189,4.58,4.58,0,0,1-.686,1.209h0A.749.749,0,0,0,21.464,17.54Zm9.425,1.808A1.859,1.859,0,0,1,29.118,18h3.54A1.859,1.859,0,0,1,30.888,19.348ZM24.53,11.32c0-6.707,4.388-7.343,4.563-7.368a.762.762,0,0,0,.511-.287.774.774,0,0,0,.15-.573,1.845,1.845,0,0,1,.274-1.321,1.01,1.01,0,0,1,.873-.312,1.068,1.068,0,0,1,.885.312,1.823,1.823,0,0,1,.262,1.272.728.728,0,0,0,.137.573.75.75,0,0,0,.511.3,4.869,4.869,0,0,1,2.232,1.1c1.558,1.309,2.344,3.441,2.344,6.333a11.754,11.754,0,0,0,.972,5.174H23.533A12.313,12.313,0,0,0,24.53,11.32Z" transform="translate(-12.41 6)" fill="#69b4d6"/>
  </g>
</svg>
