<svg xmlns="http://www.w3.org/2000/svg" xmlns:xlink="http://www.w3.org/1999/xlink" width="34.5" height="38.722" viewBox="0 0 34.5 38.722">
  <defs>
    <filter id="icon_zaloguj" x="0" y="0" width="34.5" height="38.722" filterUnits="userSpaceOnUse">
      <feOffset dy="3" input="SourceAlpha"/>
      <feGaussianBlur stdDeviation="3" result="blur"/>
      <feFlood flood-opacity="0.49"/>
      <feComposite operator="in" in2="blur"/>
      <feComposite in="SourceGraphic"/>
    </filter>
  </defs>
  <g transform="matrix(1, 0, 0, 1, 0, 0)" filter="url(#icon_zaloguj)">
    <path id="icon_zaloguj-2" data-name="icon/zaloguj" d="M48.592,19.4a.834.834,0,0,0,.844.819H63.748a.834.834,0,0,0,.844-.819c0-4.533-2.109-8.425-5.076-9.981a5.087,5.087,0,0,0,2.376-4.287,5.3,5.3,0,0,0-10.587,0,5.105,5.105,0,0,0,2.376,4.287C50.7,10.978,48.592,14.869,48.592,19.4Zm8-17.764a3.555,3.555,0,0,1,3.6,3.5,3.6,3.6,0,0,1-7.2,0A3.555,3.555,0,0,1,56.592,1.638Zm0,8.67c3.29,0,5.989,3.646,6.285,8.274H50.307C50.6,13.954,53.3,10.309,56.592,10.309Z" transform="translate(-39.34 6.25)" fill="#bacad2" stroke="#bacad2" stroke-width="0.5"/>
  </g>
</svg>
