<svg xmlns="http://www.w3.org/2000/svg" xmlns:xlink="http://www.w3.org/1999/xlink" width="36.553" height="36.553" viewBox="0 0 36.553 36.553">
  <defs>
    <filter id="icon_wydarzenia" x="0" y="0" width="36.553" height="36.553" filterUnits="userSpaceOnUse">
      <feOffset dy="3" input="SourceAlpha"/>
      <feGaussianBlur stdDeviation="3" result="blur"/>
      <feFlood flood-opacity="0.459"/>
      <feComposite operator="in" in2="blur"/>
      <feComposite in="SourceGraphic"/>
    </filter>
  </defs>
  <g transform="matrix(1, 0, 0, 1, 0, 0)" filter="url(#icon_wydarzenia)">
    <path id="icon_wydarzenia-2" data-name="icon/wydarzenia" d="M17.18,3.687h1.262A2.111,2.111,0,0,1,20.553,5.8V18.442a2.11,2.11,0,0,1-2.111,2.111H4.111A2.111,2.111,0,0,1,2,18.442V5.8A2.11,2.11,0,0,1,4.111,3.687H5.373V2.843a.843.843,0,1,1,1.687,0v.843H8.747V2.843a.843.843,0,0,1,1.687,0v.843H12.12V2.843a.843.843,0,1,1,1.687,0v.843h1.687V2.843a.843.843,0,1,1,1.687,0v.843Zm0,1.687v.843a.843.843,0,1,1-1.687,0V5.373H13.807v.843a.843.843,0,1,1-1.687,0V5.373H10.433v.843a.843.843,0,0,1-1.687,0V5.373H7.06v.843a.843.843,0,1,1-1.687,0V5.373H4.111a.424.424,0,0,0-.424.425V18.442a.424.424,0,0,0,.424.425H18.442a.424.424,0,0,0,.424-.425V5.8a.424.424,0,0,0-.424-.425ZM6.217,10.855a.843.843,0,0,1,0-1.687h8.855a.843.843,0,0,1,0,1.687Zm0,2.952a.843.843,0,1,1,0-1.687h10.12a.843.843,0,1,1,0,1.687Zm0,2.952a.843.843,0,0,1,0-1.687h5.9a.843.843,0,0,1,0,1.687Z" transform="translate(7 4)" fill="#69b4d6"/>
  </g>
</svg>
