<svg xmlns="http://www.w3.org/2000/svg" width="26.805" height="22.26" viewBox="0 0 26.805 22.26">
  <g id="icon_spolecznosc" data-name="icon/spolecznosc" transform="translate(0.1 -43.629)">
    <g id="Group_116" data-name="Group 116" transform="translate(0 53.392)">
      <g id="Group_115" data-name="Group 115" transform="translate(0 0)">
        <path id="Path_321" data-name="Path 321" d="M22.708,231.679H20.1a3.889,3.889,0,0,0-1.024.137A3.9,3.9,0,0,0,15.6,229.68H11a3.9,3.9,0,0,0-3.475,2.137,3.889,3.889,0,0,0-1.024-.137H3.9a3.9,3.9,0,0,0-3.9,3.9v4.163a2.341,2.341,0,0,0,2.338,2.338H24.267a2.341,2.341,0,0,0,2.338-2.338v-4.163A3.9,3.9,0,0,0,22.708,231.679Zm-15.6,1.9v6.942H2.338a.78.78,0,0,1-.779-.779v-4.163A2.341,2.341,0,0,1,3.9,233.238H6.5a2.33,2.33,0,0,1,.612.082C7.107,233.405,7.1,233.491,7.1,233.577Zm10.839,6.942H8.662v-6.942A2.341,2.341,0,0,1,11,231.239h4.6a2.341,2.341,0,0,1,2.338,2.338Zm7.1-.779a.78.78,0,0,1-.779.779H19.5v-6.942c0-.087,0-.172-.009-.258a2.331,2.331,0,0,1,.612-.082h2.6a2.341,2.341,0,0,1,2.338,2.338Z" transform="translate(0 -229.68)" fill="#bacad2" stroke="#bacad2" stroke-width="0.2"/>
      </g>
    </g>
    <g id="Group_118" data-name="Group 118" transform="translate(1.736 48.03)">
      <g id="Group_117" data-name="Group 117">
        <path id="Path_322" data-name="Path 322" d="M36.877,126.5a3.463,3.463,0,1,0,3.463,3.463A3.467,3.467,0,0,0,36.877,126.5Zm0,5.367a1.9,1.9,0,1,1,1.9-1.9A1.906,1.906,0,0,1,36.877,131.871Z" transform="translate(-33.414 -126.504)" fill="#bacad2" stroke="#bacad2" stroke-width="0.2"/>
      </g>
    </g>
    <g id="Group_120" data-name="Group 120" transform="translate(8.676 43.729)">
      <g id="Group_119" data-name="Group 119" transform="translate(0 0)">
        <path id="Path_323" data-name="Path 323" d="M171.589,43.729a4.627,4.627,0,1,0,4.627,4.627A4.632,4.632,0,0,0,171.589,43.729Zm0,7.694a3.068,3.068,0,1,1,3.068-3.068A3.071,3.071,0,0,1,171.589,51.423Z" transform="translate(-166.962 -43.729)" fill="#bacad2" stroke="#bacad2" stroke-width="0.2"/>
      </g>
    </g>
    <g id="Group_122" data-name="Group 122" transform="translate(17.942 48.03)">
      <g id="Group_121" data-name="Group 121">
        <path id="Path_324" data-name="Path 324" d="M348.757,126.5a3.463,3.463,0,1,0,3.463,3.463A3.467,3.467,0,0,0,348.757,126.5Zm0,5.367a1.9,1.9,0,1,1,1.9-1.9A1.906,1.906,0,0,1,348.757,131.871Z" transform="translate(-345.294 -126.504)" fill="#bacad2" stroke="#bacad2" stroke-width="0.2"/>
      </g>
    </g>
  </g>
</svg>
