<svg xmlns="http://www.w3.org/2000/svg" width="22.735" height="22.735" viewBox="0 0 22.735 22.735">
  <g id="icon_panelAdmina" data-name="icon/panelAdmina" transform="translate(-0.35 0.15)">
    <path id="Path_329" data-name="Path 329" d="M22.332,8.687l-2.7-.275A8.38,8.38,0,0,0,19.3,7.6l1.712-2.1a.672.672,0,0,0-.046-.9L18.333,1.969a.672.672,0,0,0-.9-.046L15.669,3.361a.716.716,0,0,1-.729.1l-.016-.007a.714.714,0,0,1-.443-.584L14.249.6a.672.672,0,0,0-.668-.6H9.856a.672.672,0,0,0-.668.6L8.956,2.869a.715.715,0,0,1-.445.585L8.5,3.46a.716.716,0,0,1-.728-.1L6,1.923a.672.672,0,0,0-.9.046L2.469,4.6a.672.672,0,0,0-.046.9L3.861,7.267a.715.715,0,0,1,.1.727l-.007.017a.714.714,0,0,1-.584.443L1.1,8.687a.672.672,0,0,0-.6.668V13.08a.672.672,0,0,0,.6.668l2.265.231a.714.714,0,0,1,.584.444l.007.016a.715.715,0,0,1-.1.728L2.423,16.933a.672.672,0,0,0,.046.9L5.1,20.467a.672.672,0,0,0,.9.046l1.765-1.438a.716.716,0,0,1,.728-.1l.017.007a.714.714,0,0,1,.443.584l.231,2.265a.672.672,0,0,0,.668.6h3.725a.672.672,0,0,0,.668-.6l.231-2.265a.714.714,0,0,1,.444-.584l.016-.007a.715.715,0,0,1,.728.1l1.765,1.438a.672.672,0,0,0,.9-.046l2.634-2.634a.672.672,0,0,0,.046-.9l-1.438-1.765a.716.716,0,0,1-.1-.729l.007-.016a.714.714,0,0,1,.584-.443l2.265-.231a.672.672,0,0,0,.6-.668V9.355a.672.672,0,0,0-.6-.668Zm-.74,3.787-1.661.17a2.056,2.056,0,0,0-1.69,1.267l-.006.014a2.057,2.057,0,0,0,.3,2.093l1.055,1.295-1.776,1.776-1.295-1.055a2.057,2.057,0,0,0-2.092-.3l-.015.006a2.056,2.056,0,0,0-1.268,1.69l-.17,1.662H10.462l-.17-1.661a2.055,2.055,0,0,0-1.266-1.689l-.015-.007a2.058,2.058,0,0,0-2.092.3L5.624,19.087,3.848,17.312,4.9,16.017a2.057,2.057,0,0,0,.3-2.092L5.2,13.911a2.056,2.056,0,0,0-1.69-1.268l-1.661-.17V9.962l1.661-.17A2.056,2.056,0,0,0,5.2,8.525L5.2,8.511a2.057,2.057,0,0,0-.3-2.092L3.848,5.124,5.624,3.348,6.919,4.4a2.058,2.058,0,0,0,2.092.3l.014-.006a2.056,2.056,0,0,0,1.268-1.69l.17-1.662h2.511l.17,1.661a2.056,2.056,0,0,0,1.267,1.69l.014.006a2.058,2.058,0,0,0,2.092-.3l1.295-1.055,1.776,1.776-1.605,1.97a.672.672,0,0,0-.069.746,7.013,7.013,0,0,1,.573,1.384.672.672,0,0,0,.576.479l2.528.258Zm0,0" fill="#bacad2" stroke="#bacad2" stroke-width="0.3"/>
    <path id="Path_331" data-name="Path 331" d="M139.364,133.5a5.368,5.368,0,1,0,5.368,5.368A5.374,5.374,0,0,0,139.364,133.5Zm0,9.393a4.025,4.025,0,1,1,4.024-4.025A4.029,4.029,0,0,1,139.364,142.889Zm0,0" transform="translate(-127.646 -127.646)" fill="#bacad2" stroke="#bacad2" stroke-width="0.3"/>
  </g>
</svg>
