<svg xmlns="http://www.w3.org/2000/svg" xmlns:xlink="http://www.w3.org/1999/xlink" width="37.734" height="40.849" viewBox="0 0 37.734 40.849">
  <defs>
    <filter id="icon_polityka" x="0" y="0" width="37.734" height="40.849" filterUnits="userSpaceOnUse">
      <feOffset dy="3" input="SourceAlpha"/>
      <feGaussianBlur stdDeviation="3" result="blur"/>
      <feFlood flood-opacity="0.69"/>
      <feComposite operator="in" in2="blur"/>
      <feComposite in="SourceGraphic"/>
    </filter>
  </defs>
  <g transform="matrix(1, 0, 0, 1, 0, 0)" filter="url(#icon_polityka)">
    <path id="icon_polityka-2" data-name="icon/polityka" d="M24.734,6.23V16.364a4.5,4.5,0,0,1-1.7,3.357L16.75,24.268a3.344,3.344,0,0,1-3.767,0L6.7,19.721A4.513,4.513,0,0,1,5,16.364V6.23A3.3,3.3,0,0,1,7.189,3.188a16.18,16.18,0,0,1,2.129-.6,26.363,26.363,0,0,1,11.1,0,16.15,16.15,0,0,1,2.135.6A3.324,3.324,0,0,1,24.734,6.23Zm-17.657,0V16.364a2.482,2.482,0,0,0,.845,1.675l6.28,4.548a1.283,1.283,0,0,0,1.33,0l6.28-4.548a2.462,2.462,0,0,0,.845-1.675V6.23a1.259,1.259,0,0,0-.762-1.069l-.064-.022q-.227-.084-.458-.153-.695-.212-1.4-.367a24.288,24.288,0,0,0-10.2,0q-.71.155-1.4.367c-.234.072-.388.126-.458.153l-.078.026a1.238,1.238,0,0,0-.748,1.066Zm4.37,5.941,1.862,1.862,4.978-4.978a1.039,1.039,0,1,1,1.469,1.469l-5.713,5.712a1.039,1.039,0,0,1-1.469,0l-2.6-2.6a1.039,1.039,0,1,1,1.469-1.469Z" transform="translate(4 4)" fill="#bacad2"/>
  </g>
</svg>
