<svg xmlns="http://www.w3.org/2000/svg" width="19.985" height="27.442" viewBox="0 0 19.985 27.442">
  <path id="phone2" d="M15.331,19.76c-.026-.018-3.034-5.075-3.044-5.14-.622-1.359-1.124-2.749-.078-3.366L7.868,3.934c-1.125.841-4.307,5.405,1.649,15.748,6.274,10.9,12.245,10.447,13.442,9.709l-4.23-7.145C17.729,22.834,16.887,21.865,15.331,19.76Zm10.531,6.857v-.006s-3.3-5.566-3.305-5.568a.924.924,0,0,0-1.264-.324l-2.024,1.2,4.242,7.166s2.024-1.191,2.023-1.195h0A.922.922,0,0,0,25.862,26.617ZM14.786,9.736v0a.918.918,0,0,0,.325-1.265l0-.006s-3.4-5.729-3.4-5.73a.921.921,0,0,0-1.263-.324L8.426,3.6l4.336,7.324s2.023-1.189,2.024-1.192Z" transform="translate(-6.008 -2.279)" fill="#47d93d"/>
</svg>
