<svg xmlns="http://www.w3.org/2000/svg" width="18.117" height="29.274" viewBox="0 0 18.117 29.274">
  <path id="moneybag" d="M14.514,9.835h4.239V8.245H14.514Zm4.207.529H14.514S7.592,17.188,7.592,23.877c0,7.088,7.253,7.652,7.253,7.652a10.574,10.574,0,0,0,3.509,0s7.355-.862,7.355-7.617S18.722,10.364,18.722,10.364Zm.311,14.362a2.476,2.476,0,0,1-.693.864,3.018,3.018,0,0,1-1.022.521c-.05.015-.1.02-.154.033v1.177H16.1V26.283c-.013,0-.026,0-.039,0a4.55,4.55,0,0,1-.838-.072,4.888,4.888,0,0,1-.683-.177,2.956,2.956,0,0,1-.495-.217,1.436,1.436,0,0,1-.287-.2.5.5,0,0,1-.125-.252,2.4,2.4,0,0,1-.037-.475c0-.139,0-.255.014-.35a.984.984,0,0,1,.044-.229.251.251,0,0,1,.08-.125.2.2,0,0,1,.117-.037.552.552,0,0,1,.266.111,4.468,4.468,0,0,0,.441.246,4.03,4.03,0,0,0,.643.247,3.072,3.072,0,0,0,.865.111,1.989,1.989,0,0,0,.579-.078,1.285,1.285,0,0,0,.434-.219.923.923,0,0,0,.273-.35,1.111,1.111,0,0,0,.095-.467.824.824,0,0,0-.162-.509,1.635,1.635,0,0,0-.421-.377,4.394,4.394,0,0,0-.588-.309c-.22-.1-.447-.2-.68-.306a6,6,0,0,1-.68-.367,2.744,2.744,0,0,1-.589-.49,2.358,2.358,0,0,1-.421-.677,2.439,2.439,0,0,1-.161-.935,2.478,2.478,0,0,1,.232-1.1,2.253,2.253,0,0,1,.626-.787,2.683,2.683,0,0,1,.929-.468,3.774,3.774,0,0,1,.567-.116V16.2h1.059v1.114c.043.005.085,0,.127.01a4.2,4.2,0,0,1,.579.127,3.313,3.313,0,0,1,.477.18,1.084,1.084,0,0,1,.276.167.49.49,0,0,1,.093.113.687.687,0,0,1,.04.125,1.2,1.2,0,0,1,.023.2c0,.078.006.176.006.292s0,.241-.011.332a1.171,1.171,0,0,1-.033.222.257.257,0,0,1-.067.128.163.163,0,0,1-.117.04.563.563,0,0,1-.236-.093c-.108-.064-.24-.13-.4-.2a3.973,3.973,0,0,0-.545-.2,2.431,2.431,0,0,0-.68-.089,1.613,1.613,0,0,0-.505.07,1.049,1.049,0,0,0-.361.194.773.773,0,0,0-.214.3.962.962,0,0,0-.07.368.82.82,0,0,0,.157.5,1.5,1.5,0,0,0,.425.377,4.311,4.311,0,0,0,.6.309q.336.145.686.306a7.028,7.028,0,0,1,.686.367,2.732,2.732,0,0,1,.6.491,2.3,2.3,0,0,1,.423.672,2.357,2.357,0,0,1,.162.913,2.7,2.7,0,0,1-.258,1.2ZM18.688,7.715l2.153-5.3a5.16,5.16,0,0,1-2.153,1.127c-.8,0-2.055-1.094-2.055-1.094a5.209,5.209,0,0,1-2.153,1.094,4.892,4.892,0,0,1-2.087-1.06L14.58,7.715h4.108Z" transform="translate(-7.592 -2.415)" fill="#fff"/>
</svg>
