<svg xmlns="http://www.w3.org/2000/svg" width="33.448" height="33.511" viewBox="0 0 33.448 33.511">
  <g id="icon_Sport" data-name="icon/Sport" transform="translate(0.15 -0.799)">
    <path id="Rectangle-path" d="M0,0H2.377V2.377H0Z" transform="translate(20.438 13.932) rotate(-45)" fill="#454f63" stroke="#454f63" stroke-width="0.3"/>
    <path id="Rectangle-path-2" data-name="Rectangle-path" d="M0,0H2.377V2.377H0Z" transform="translate(20.44 8.926) rotate(-45)" fill="#454f63" stroke="#454f63" stroke-width="0.3"/>
    <path id="Shape" d="M38.915,5.974l-.1-.1c-.147.01-.294.024-.444.044a8.894,8.894,0,0,0-2.259.615l1.122,1.121Z" transform="translate(-15.112 -2.056)" fill="#454f63" stroke="#454f63" stroke-width="0.3"/>
    <path id="Rectangle-path-3" data-name="Rectangle-path" d="M0,0H2.377V2.377H0Z" transform="translate(25.446 8.927) rotate(-45)" fill="#454f63" stroke="#454f63" stroke-width="0.3"/>
    <path id="Shape-2" data-name="Shape" d="M46.095,7.067a5.313,5.313,0,0,0-2.326-1.036l-.008.008L45.442,7.72Z" transform="translate(-18.312 -2.121)" fill="#454f63" stroke="#454f63" stroke-width="0.3"/>
    <path id="Rectangle-path-4" data-name="Rectangle-path" d="M0,0H2.377V2.377H0Z" transform="translate(22.942 11.43) rotate(-45)" fill="#454f63" stroke="#454f63" stroke-width="0.3"/>
    <path id="Shape-3" data-name="Shape" d="M5.55,41.8,4.316,43.034,6.372,45.09a.582.582,0,1,1-.822.822L3.493,43.856.341,47.009a1.163,1.163,0,0,0,0,1.645L1.985,50.3a1.163,1.163,0,0,0,1.645,0l.411-.411L1.985,47.831a.582.582,0,0,1,.822-.822l2.056,2.056L8.839,45.09,7.195,43.445Z" transform="translate(0 -17.089)" fill="#454f63" stroke="#454f63" stroke-width="0.3"/>
    <path id="Shape-4" data-name="Shape" d="M20.058,32.347c-.273.616-.551,1.151-.818,1.668-.174.334-.344.665-.514,1.01a.555.555,0,0,0,.747.744c.344-.17.676-.341,1.011-.515.516-.268,1.05-.544,1.65-.822l.014.006a8.815,8.815,0,0,1-2.09-2.091Z" transform="translate(-7.811 -13.133)" fill="#454f63" stroke="#454f63" stroke-width="0.3"/>
    <path id="Shape-5" data-name="Shape" d="M49.752,11.552a5.308,5.308,0,0,0-1.035-2.326l-.653.652,1.681,1.681Z" transform="translate(-20.113 -3.458)" fill="#454f63" stroke="#454f63" stroke-width="0.3"/>
    <path id="Rectangle-path-5" data-name="Rectangle-path" d="M0,0H2.377V2.377H0Z" transform="translate(15.433 13.93) rotate(-45)" fill="#454f63" stroke="#454f63" stroke-width="0.3"/>
    <path id="Rectangle-path-6" data-name="Rectangle-path" d="M0,0H2.377V2.377H0Z" transform="translate(17.937 11.429) rotate(-45)" fill="#454f63" stroke="#454f63" stroke-width="0.3"/>
    <path id="Rectangle-path-7" data-name="Rectangle-path" d="M0,0H2.377V2.377H0Z" transform="translate(22.942 6.423) rotate(-45)" fill="#454f63" stroke="#454f63" stroke-width="0.3"/>
    <path id="Shape-6" data-name="Shape" d="M43.76,22.054l1.666,1.666a11.017,11.017,0,0,0,1.413-1.949l-1.4-1.4Z" transform="translate(-18.312 -8.124)" fill="#454f63" stroke="#454f63" stroke-width="0.3"/>
    <path id="Shape-7" data-name="Shape" d="M34.221,9.346l-1.4-1.4a11,11,0,0,0-1.949,1.413l1.666,1.666Z" transform="translate(-12.921 -2.924)" fill="#454f63" stroke="#454f63" stroke-width="0.3"/>
    <path id="Shape-8" data-name="Shape" d="M48.065,17.748l1.121,1.121a8.894,8.894,0,0,0,.615-2.26c.02-.152.026-.3.037-.45l-.093-.093Z" transform="translate(-20.113 -6.321)" fill="#454f63" stroke="#454f63" stroke-width="0.3"/>
    <path id="Shape-9" data-name="Shape" d="M34.76,3.328a8.491,8.491,0,0,0-6.979-2.3,12.785,12.785,0,0,0-7.717,3.8,13.852,13.852,0,0,0-2.009,2.534c-1.572,2.556-1.888,5.677-2.993,8.561a37.082,37.082,0,0,1-4.22,7.9l3.419,3.42c.981-.683,1.988-1.32,3-1.9A32.191,32.191,0,0,1,26,21.815a14.364,14.364,0,0,0,7.254-3.792c4.465-4.465,5.14-11.058,1.5-14.7ZM19.349,22.353c-.976.453-1.752.89-2.64,1.327a1.719,1.719,0,0,1-2.3-2.3c.174-.354.349-.692.523-1.032.262-.507.533-1.031.8-1.609a1.176,1.176,0,0,1,.961-.675,1.138,1.138,0,0,1,1.042.481,7.632,7.632,0,0,0,1.809,1.809,1.135,1.135,0,0,1,.482,1.04,1.176,1.176,0,0,1-.673.96Zm12.728-5.509c-3.519,3.52-9.108,4.73-12.336,1.5C16.892,15.5,17.3,9.957,21.243,6.01c3.332-3.331,8.995-4.845,12.337-1.5,2.731,2.73,2.657,8.179-1.5,12.336Z" transform="translate(-4.538 0)" fill="#454f63" stroke="#454f63" stroke-width="0.3"/>
    <path id="Shape-10" data-name="Shape" d="M35.152,30.661l.094.093c.149-.011.3-.017.45-.038a8.892,8.892,0,0,0,2.259-.615L36.833,28.98Z" transform="translate(-14.709 -11.724)" fill="#454f63" stroke="#454f63" stroke-width="0.3"/>
    <path id="Shape-11" data-name="Shape" d="M39.457,26.357l1.4,1.4a11,11,0,0,0,1.95-1.411l-1.666-1.666Z" transform="translate(-16.511 -9.923)" fill="#454f63" stroke="#454f63" stroke-width="0.3"/>
    <path id="Shape-12" data-name="Shape" d="M26.744,18.151l-1.121-1.122a8.9,8.9,0,0,0-.615,2.259c-.02.152-.027.3-.037.45l.093.093Z" transform="translate(-10.449 -6.724)" fill="#454f63" stroke="#454f63" stroke-width="0.3"/>
    <path id="Shape-13" data-name="Shape" d="M30.109,13.456,28.444,11.79a11.013,11.013,0,0,0-1.413,1.948l1.4,1.4Z" transform="translate(-11.311 -4.531)" fill="#454f63" stroke="#454f63" stroke-width="0.3"/>
    <path id="Shape-14" data-name="Shape" d="M25.117,24.683a5.319,5.319,0,0,0,1.035,2.326l.653-.653-1.681-1.681Z" transform="translate(-10.51 -9.923)" fill="#454f63" stroke="#454f63" stroke-width="0.3"/>
    <path id="Rectangle-path-8" data-name="Rectangle-path" d="M0,0H2.377V2.377H0Z" transform="translate(17.935 16.434) rotate(-45)" fill="#454f63" stroke="#454f63" stroke-width="0.3"/>
    <path id="Shape-15" data-name="Shape" d="M28.311,29.63a5.311,5.311,0,0,0,2.326,1.036l.008-.008-1.681-1.681Z" transform="translate(-11.847 -11.723)" fill="#454f63" stroke="#454f63" stroke-width="0.3"/>
    <path id="Shape-16" data-name="Shape" d="M40.989,50.15a5.221,5.221,0,0,1,0-8.2C42.246,43.206,42.183,48.958,40.989,50.15Z" transform="translate(-16.32 -17.152)" fill="#454f63" stroke="#454f63" stroke-width="0.3"/>
    <path id="Shape-17" data-name="Shape" d="M48.63,40.506c-.663.8-1.082,2.623-1.082,4.728s.419,3.925,1.082,4.728a5.234,5.234,0,0,1-4.49,0c.663-.8,1.082-2.623,1.082-4.728s-.419-3.925-1.082-4.728A5.234,5.234,0,0,1,48.63,40.506Z" transform="translate(-18.471 -16.336)" fill="#454f63" stroke="#454f63" stroke-width="0.3"/>
    <path id="Shape-18" data-name="Shape" d="M52.919,50.15c-1.257-1.256-1.194-7.007,0-8.2a5.221,5.221,0,0,1,0,8.2Z" transform="translate(-21.759 -17.152)" fill="#454f63" stroke="#454f63" stroke-width="0.3"/>
    <path id="Shape-19" data-name="Shape" d="M10.984,8.565a.582.582,0,0,1-.411-.17L4.176,2A.582.582,0,0,1,5,1.176l6.4,6.4a.582.582,0,0,1-.411.993Z" transform="translate(-1.679 -0.021)" fill="#454f63" stroke="#454f63" stroke-width="0.3"/>
    <path id="Shape-20" data-name="Shape" d="M8.984,14.565a.582.582,0,0,1-.411-.17L2.176,8A.582.582,0,0,1,3,7.176l6.4,6.4a.582.582,0,0,1-.411.993Z" transform="translate(-0.842 -2.532)" fill="#454f63" stroke="#454f63" stroke-width="0.3"/>
  </g>
</svg>
