<svg xmlns="http://www.w3.org/2000/svg" width="30.308" height="30.81" viewBox="0 0 30.308 30.81">
  <path id="calendar2" d="M30.143,32.81H4.165A2.184,2.184,0,0,1,2,30.609V7.5A2.184,2.184,0,0,1,4.165,5.3H6.33V6.4a3.248,3.248,0,1,0,6.494,0V5.3h8.659V6.4a3.248,3.248,0,1,0,6.494,0V5.3h2.165a2.184,2.184,0,0,1,2.165,2.2V30.609A2.184,2.184,0,0,1,30.143,32.81Zm0-19.806H4.165V30.609H30.143ZM13.981,21.618a2.051,2.051,0,0,0,.32-1.093q0-1.276-1.351-1.276a3.357,3.357,0,0,0-2.245.947V18.4a4.759,4.759,0,0,1,2.677-.78,3.125,3.125,0,0,1,2.179.712,2.471,2.471,0,0,1,.784,1.925,4.751,4.751,0,0,1-1.909,3.346L12.564,25.3v.039h3.691v1.689H10.269V25.437L12.875,22.9a7.329,7.329,0,0,0,1.106-1.285Zm7.326,3.672a1.119,1.119,0,0,0,.429-.935,1.066,1.066,0,0,0-.529-.954,2.708,2.708,0,0,0-1.456-.336h-.818V21.5h.754q1.776,0,1.776-1.2,0-1.129-1.364-1.128a3.082,3.082,0,0,0-1.776.6V18.113a4.835,4.835,0,0,1,2.232-.49,3.331,3.331,0,0,1,2.172.638,2.044,2.044,0,0,1,.777,1.657A2.146,2.146,0,0,1,21.7,22.188v.032a2.441,2.441,0,0,1,1.522.712,2.025,2.025,0,0,1,.559,1.447,2.5,2.5,0,0,1-.932,2.05,3.984,3.984,0,0,1-2.575.755,4.911,4.911,0,0,1-2.289-.464V24.947a3.482,3.482,0,0,0,2.131.677,1.883,1.883,0,0,0,1.195-.333ZM24.7,8.6a2.148,2.148,0,0,1-2.131-2.167V4.167a2.132,2.132,0,1,1,4.263,0V6.435A2.148,2.148,0,0,1,24.7,8.6ZM9.543,8.6A2.148,2.148,0,0,1,7.412,6.435V4.167a2.132,2.132,0,1,1,4.263,0V6.435A2.149,2.149,0,0,1,9.543,8.6Z" transform="translate(-2 -2)" fill="#454f63"/>
</svg>
