<svg xmlns="http://www.w3.org/2000/svg" width="29.611" height="30.303" viewBox="0 0 29.611 30.303">
  <g id="icon_opis" data-name="icon/opis" transform="translate(-3.149)">
    <path id="Path_308" data-name="Path 308" d="M31.66,30.582H30.307c0,2.055.006,1.971-.018,2.2a3.3,3.3,0,0,1-6.562,0c-.024-.23-.018-.167-.018-2.2H21.253c0,2.055.006,1.971-.018,2.2a3.3,3.3,0,0,1-6.562,0c-.024-.23-.018-.167-.018-2.2H12.2c0,2.055.006,1.971-.018,2.2a3.3,3.3,0,0,1-6.562,0c-.024-.23-.018-.167-.018-2.2H4.249a1.1,1.1,0,0,0-1.1,1.1V56.423a1.1,1.1,0,0,0,1.1,1.1H31.66a1.1,1.1,0,0,0,1.1-1.1V31.682A1.1,1.1,0,0,0,31.66,30.582Zm-1.1,24.741H5.348V38.682H30.56Z" transform="translate(0 -27.219)" fill="#454f63"/>
    <path id="Path_309" data-name="Path 309" d="M62.223,137.157h6.49l-2.2-2.2H63.322v-7.8h7.8v3.862l2.2-2.2v-2.763a1.1,1.1,0,0,0-1.1-1.1h-10a1.1,1.1,0,0,0-1.1,1.1v10A1.1,1.1,0,0,0,62.223,137.157Z" transform="translate(-51.599 -111.221)" fill="#454f63"/>
    <path id="Path_310" data-name="Path 310" d="M124.439,6.867a1.649,1.649,0,0,0,1.649-1.649V1.649a1.649,1.649,0,1,0-3.3,0V5.218A1.649,1.649,0,0,0,124.439,6.867Z" transform="translate(-106.485 0)" fill="#454f63"/>
    <path id="Path_311" data-name="Path 311" d="M206.773,6.867a1.649,1.649,0,0,0,1.649-1.649V1.649a1.649,1.649,0,0,0-3.3,0V5.218A1.649,1.649,0,0,0,206.773,6.867Z" transform="translate(-179.766 0)" fill="#454f63"/>
    <path id="Path_312" data-name="Path 312" d="M42.106,6.867a1.649,1.649,0,0,0,1.649-1.649V1.649a1.649,1.649,0,1,0-3.3,0V5.218A1.649,1.649,0,0,0,42.106,6.867Z" transform="translate(-33.206 0)" fill="#454f63"/>
    <path id="Path_313" data-name="Path 313" d="M101.945,144.745a1.1,1.1,0,0,0-1.472-.075,1.114,1.114,0,0,0-.084.075,1.1,1.1,0,0,0,0,1.555l4.232,4.232a1.1,1.1,0,0,0,1.555,0l7.446-7.445a1.1,1.1,0,0,0-1.555-1.555L105.4,148.2Z" transform="translate(-86.262 -125.682)" fill="#454f63"/>
  </g>
</svg>
