<svg xmlns="http://www.w3.org/2000/svg" width="30.838" height="30.469" viewBox="0 0 30.838 30.469">
  <path id="icon_opis" data-name="icon/opis" d="M12.787,22.41l-2.9,7.448,7.319-3.03L12.787,22.41ZM34.033,6.5,33.1,5.574a2.627,2.627,0,0,0-3.715,0L27.532,7.431l4.643,4.645,1.857-1.857a2.626,2.626,0,0,0,0-3.716ZM12.934,22.03l.665-.665,4.643,4.643,13-13L26.6,8.361l.929-.93Zm16.04,10.622L6.609,32.66l0-22.365,15.659-.005,2.454-2.6H5.279A1.313,1.313,0,0,0,3.965,9V33.96a1.313,1.313,0,0,0,1.314,1.314H30.236A1.312,1.312,0,0,0,31.55,33.96V15.494l-2.647,2.6.071,14.561Z" transform="translate(-3.965 -4.804)" fill="#454f63"/>
</svg>
