<svg xmlns="http://www.w3.org/2000/svg" xmlns:xlink="http://www.w3.org/1999/xlink" width="52.556" height="48" viewBox="0 0 52.556 48">
  <defs>
    <filter id="path" x="0" y="0" width="52.556" height="48" filterUnits="userSpaceOnUse">
      <feOffset dy="3" input="SourceAlpha"/>
      <feGaussianBlur stdDeviation="3" result="blur"/>
      <feFlood flood-opacity="0.122"/>
      <feComposite operator="in" in2="blur"/>
      <feComposite in="SourceGraphic"/>
    </filter>
  </defs>
  <g transform="matrix(1, 0, 0, 1, 0, 0)" filter="url(#path)">
    <path id="path-2" data-name="path" d="M4.071,6.333A1.531,1.531,0,0,1,2.5,4.667,1.531,1.531,0,0,1,4.071,3H35.485a1.531,1.531,0,0,1,1.571,1.667,1.531,1.531,0,0,1-1.571,1.667ZM8.783,15.5a1.531,1.531,0,0,1-1.571-1.667,1.531,1.531,0,0,1,1.571-1.667h21.99a1.531,1.531,0,0,1,1.571,1.667A1.531,1.531,0,0,1,30.773,15.5Zm4.712,9.167A1.531,1.531,0,0,1,11.924,23a1.531,1.531,0,0,1,1.571-1.667H26.061A1.531,1.531,0,0,1,27.631,23a1.531,1.531,0,0,1-1.571,1.667ZM18.207,33a1.67,1.67,0,0,1,0-3.333h3.141a1.67,1.67,0,0,1,0,3.333Z" transform="translate(6.5 3)" fill="#5d6472"/>
  </g>
</svg>
