<svg xmlns="http://www.w3.org/2000/svg" width="21" height="21" viewBox="0 0 21 21">
  <g id="Pencil" transform="translate(0 0)">
    <circle id="Ellipse_1" data-name="Ellipse 1" cx="10.5" cy="10.5" r="10.5" transform="translate(0 0)" fill="#3685ce"/>
    <path id="pencil-2" data-name="pencil" d="M11.83,2.967A3.116,3.116,0,0,0,9.555,2.2a.327.327,0,0,0-.212.135L5.171,8.091a1.484,1.484,0,0,0-.28.792l-.18,3.409a.34.34,0,0,0,.461.335l3.186-1.218a1.485,1.485,0,0,0,.671-.514L13.2,5.14a.34.34,0,0,0,.061-.256A3.129,3.129,0,0,0,11.83,2.967ZM8.367,10.728l-1.238.478a.115.115,0,0,1-.134-.038,3.126,3.126,0,0,0-.652-.624,3.168,3.168,0,0,0-.794-.428A.116.116,0,0,1,5.473,10l.074-1.325.333-.458a2.59,2.59,0,0,1,1.717.6,2.594,2.594,0,0,1,1.1,1.447l-.333.458Z" transform="translate(1.424 3.099)" fill="rgba(0,0,0,0.77)"/>
  </g>
</svg>
