<svg xmlns="http://www.w3.org/2000/svg" xmlns:xlink="http://www.w3.org/1999/xlink" width="92" height="69.823" viewBox="0 0 92 69.823">
  <defs>
    <filter id="icon_powiadomienia" x="21.519" y="0" width="49.001" height="52.081" filterUnits="userSpaceOnUse">
      <feOffset dy="3" input="SourceAlpha"/>
      <feGaussianBlur stdDeviation="3" result="blur"/>
      <feFlood flood-opacity="0.49"/>
      <feComposite operator="in" in2="blur"/>
      <feComposite in="SourceGraphic"/>
    </filter>
    <filter id="Powiadomienia" x="0" y="36.823" width="92" height="33" filterUnits="userSpaceOnUse">
      <feOffset dy="3" input="SourceAlpha"/>
      <feGaussianBlur stdDeviation="3" result="blur-2"/>
      <feFlood flood-opacity="0.302"/>
      <feComposite operator="in" in2="blur-2"/>
      <feComposite in="SourceGraphic"/>
    </filter>
  </defs>
  <g id="powiadomienia-2" data-name="powiadomienia" transform="translate(7.208 74.193)">
    <g transform="matrix(1, 0, 0, 1, -7.21, -74.19)" filter="url(#icon_powiadomienia)">
      <path id="icon_powiadomienia-2" data-name="icon/powiadomienia" d="M21.5,28.68a1.223,1.223,0,0,0,1.121.754h8.887a5.439,5.439,0,0,0,10.763,0h8.908a.565.565,0,0,0,.183-.02,1.241,1.241,0,0,0,.978-.775,1.2,1.2,0,0,0-.306-1.284l-.061-.061a5.717,5.717,0,0,1-1.08-1.835,18.207,18.207,0,0,1-1.142-6.91,20.11,20.11,0,0,0-1.221-7.2,12.069,12.069,0,0,0-3.488-5.009A10.815,10.815,0,0,0,41.25,4.26a4.817,4.817,0,0,0-1.019-2.894A4.085,4.085,0,0,0,36.929,0a4.134,4.134,0,0,0-3.282,1.366,4.754,4.754,0,0,0-1.04,2.956A10.926,10.926,0,0,0,28.816,6.36c-3.934,3.221-4.749,8.4-4.749,12.149A17.919,17.919,0,0,1,22.9,25.357a7.489,7.489,0,0,1-1.121,1.977h0A1.224,1.224,0,0,0,21.5,28.68Zm15.41,2.956a3.039,3.039,0,0,1-2.894-2.2H39.8A3.039,3.039,0,0,1,36.908,31.635Zm-10.4-13.127c0-10.966,7.175-12.006,7.46-12.047a1.247,1.247,0,0,0,.836-.469,1.265,1.265,0,0,0,.245-.938A3.017,3.017,0,0,1,35.5,2.895a1.651,1.651,0,0,1,1.427-.51,1.747,1.747,0,0,1,1.447.51A2.982,2.982,0,0,1,38.8,4.974a1.19,1.19,0,0,0,.224.938,1.227,1.227,0,0,0,.836.489,7.961,7.961,0,0,1,3.649,1.794c2.548,2.14,3.832,5.626,3.832,10.355a19.218,19.218,0,0,0,1.59,8.459H24.882A20.132,20.132,0,0,0,26.513,18.508Z" transform="translate(9.11 6)" fill="#fff"/>
    </g>
    <g transform="matrix(1, 0, 0, 1, -7.21, -74.19)" filter="url(#Powiadomienia)">
      <text id="Powiadomienia-3" data-name="Powiadomienia" transform="translate(46 54.82)" fill="#fff" font-size="11" font-family="SegoeUI, Segoe UI"><tspan x="-36.854" y="0">Powiadomienia</tspan></text>
    </g>
  </g>
</svg>
