<svg xmlns="http://www.w3.org/2000/svg" width="22.641" height="32.408" viewBox="0 0 22.641 32.408">
  <g id="icon_city" data-name="icon/city" transform="translate(-27.6 -18.8)">
    <path id="XMLID_9_" d="M38.921,18.8A11.3,11.3,0,0,0,27.6,30.121c0,8.546,11.321,21.087,11.321,21.087S50.241,38.667,50.241,30.176A11.344,11.344,0,0,0,38.921,18.8Zm0,15.372a4.074,4.074,0,0,1-4.051-4.051,4.026,4.026,0,0,1,4.051-4,4.074,4.074,0,0,1,4.051,4.051A4.026,4.026,0,0,1,38.921,34.172Z" transform="translate(0)" fill="#53565d"/>
  </g>
</svg>
