<svg xmlns="http://www.w3.org/2000/svg" xmlns:xlink="http://www.w3.org/1999/xlink" width="82" height="87.665" viewBox="0 0 82 87.665">
  <defs>
    <filter id="icon_polityka" x="19.437" y="0" width="46.742" height="51.279" filterUnits="userSpaceOnUse">
      <feOffset dy="3" input="SourceAlpha"/>
      <feGaussianBlur stdDeviation="3" result="blur"/>
      <feFlood flood-opacity="0.69"/>
      <feComposite operator="in" in2="blur"/>
      <feComposite in="SourceGraphic"/>
    </filter>
    <filter id="Polityka_prywatnosci" x="0" y="37.665" width="82" height="50" filterUnits="userSpaceOnUse">
      <feOffset dy="3" input="SourceAlpha"/>
      <feGaussianBlur stdDeviation="3" result="blur-2"/>
      <feFlood flood-opacity="0.302"/>
      <feComposite operator="in" in2="blur-2"/>
      <feComposite in="SourceGraphic"/>
    </filter>
  </defs>
  <g id="polityka" transform="translate(3.882 -259.123)">
    <g transform="matrix(1, 0, 0, 1, -3.88, 259.12)" filter="url(#icon_polityka)">
      <path id="icon_polityka-2" data-name="icon/polityka" d="M33.742,8.161v14.76a6.555,6.555,0,0,1-2.481,4.89l-9.148,6.622a4.871,4.871,0,0,1-5.487,0L7.482,27.81A6.573,6.573,0,0,1,5,22.92V8.161A4.806,4.806,0,0,1,8.189,3.731a23.566,23.566,0,0,1,3.1-.871,38.4,38.4,0,0,1,16.162,0,23.522,23.522,0,0,1,3.109.874A4.842,4.842,0,0,1,33.742,8.161Zm-25.717,0v14.76a3.615,3.615,0,0,0,1.231,2.439L18.4,31.985a1.868,1.868,0,0,0,1.938,0l9.146-6.624a3.587,3.587,0,0,0,1.231-2.439V8.161A1.834,1.834,0,0,0,29.607,6.6l-.094-.033q-.33-.122-.667-.223Q27.835,6.04,26.8,5.814a35.374,35.374,0,0,0-14.858,0q-1.034.225-2.046.535c-.34.105-.566.184-.667.223l-.113.038a1.8,1.8,0,0,0-1.09,1.552Zm6.364,8.653L17.1,19.527l7.251-7.251a1.513,1.513,0,1,1,2.139,2.139l-8.32,8.32a1.513,1.513,0,0,1-2.139,0l-3.782-3.782a1.513,1.513,0,1,1,2.139-2.139Z" transform="translate(23.44 4)" fill="#fff"/>
    </g>
    <g transform="matrix(1, 0, 0, 1, -3.88, 259.12)" filter="url(#Polityka_prywatnosci)">
      <text id="Polityka_prywatnosci-2" data-name="Polityka
prywatnosci" transform="translate(41 56.66)" fill="#fff" font-size="12" font-family="SegoeUI, Segoe UI"><tspan x="-20.531" y="0">Polityka</tspan><tspan x="-31.62" y="16">prywatnosci</tspan></text>
    </g>
  </g>
</svg>
