<svg xmlns="http://www.w3.org/2000/svg" xmlns:xlink="http://www.w3.org/1999/xlink" width="84" height="63.391" viewBox="0 0 84 63.391">
  <defs>
    <filter id="icon_wiadomosci" x="17.021" y="0" width="49.241" height="43.561" filterUnits="userSpaceOnUse">
      <feOffset dy="3" input="SourceAlpha"/>
      <feGaussianBlur stdDeviation="3" result="blur"/>
      <feFlood flood-opacity="0.502"/>
      <feComposite operator="in" in2="blur"/>
      <feComposite in="SourceGraphic"/>
    </filter>
    <filter id="Wiadomosci" x="0" y="29.391" width="84" height="34" filterUnits="userSpaceOnUse">
      <feOffset dy="3" input="SourceAlpha"/>
      <feGaussianBlur stdDeviation="3" result="blur-2"/>
      <feFlood flood-opacity="0.302"/>
      <feComposite operator="in" in2="blur-2"/>
      <feComposite in="SourceGraphic"/>
    </filter>
  </defs>
  <g id="wiadomosci-2" data-name="wiadomosci" transform="translate(3.186 -93.766)">
    <g transform="matrix(1, 0, 0, 1, -3.19, 93.77)" filter="url(#icon_wiadomosci)">
      <path id="icon_wiadomosci-2" data-name="icon/wiadomosci" d="M31.241,40.884a1.221,1.221,0,0,0-1.217-1.217H1.217A1.221,1.221,0,0,0,0,40.884V64.011a1.221,1.221,0,0,0,1.217,1.217H30.024a1.221,1.221,0,0,0,1.217-1.217ZM2.434,62.793V48.37L14.667,58.9a1.1,1.1,0,0,0,.771.284,1.42,1.42,0,0,0,.832-.284L28.807,48.41V62.793ZM28.807,42.1v3.144c-.2.02-.1.041-.122.041l-13.227,11.1L2.475,45.225c-.02-.02-.041-.041-.041-.061V42.1Z" transform="translate(26.02 -33.67)" fill="#fff"/>
    </g>
    <g transform="matrix(1, 0, 0, 1, -3.19, 93.77)" filter="url(#Wiadomosci)">
      <text id="Wiadomosci-3" data-name="Wiadomosci" transform="translate(42 48.39)" fill="#fff" font-size="12" font-family="SegoeUI, Segoe UI"><tspan x="-32.613" y="0">Wiadomosci</tspan></text>
    </g>
  </g>
</svg>
