<svg xmlns="http://www.w3.org/2000/svg" width="28.556" height="28.556" viewBox="0 0 28.556 28.556">
  <path id="icon_help" data-name="icon/help" d="M29.778,15.5A14.278,14.278,0,1,0,44.056,29.778,14.249,14.249,0,0,0,29.778,15.5Zm0,2.372A11.905,11.905,0,1,1,17.872,29.778,11.915,11.915,0,0,1,29.778,17.872Zm.351,3.822a5.8,5.8,0,0,0-3.778,1.186,3.869,3.869,0,0,0-1.406,3.295l.044.088h2.768a1.9,1.9,0,0,1,.659-1.582,2.616,2.616,0,0,1,1.669-.527,2.286,2.286,0,0,1,1.757.659,2.328,2.328,0,0,1,.615,1.757,3.458,3.458,0,0,1-.527,1.845,11.577,11.577,0,0,1-1.45,1.713,6.437,6.437,0,0,0-1.669,1.845,5.336,5.336,0,0,0-.4,2.416h2.9a4.584,4.584,0,0,1,.176-1.538,2.906,2.906,0,0,1,.835-1.1,10.159,10.159,0,0,0,2.2-2.372,5.058,5.058,0,0,0,.879-2.812A4.386,4.386,0,0,0,34,23.056a5.261,5.261,0,0,0-3.866-1.362ZM28.416,36.455v2.768h2.943V36.455Z" transform="translate(-15.5 -15.5)" fill="#53565d"/>
</svg>
